<svg id="Capa_1" enable-background="new 0 0 512 512" height="250" viewBox="0 0 512 512" width="512" xmlns="http://www.w3.org/2000/svg"><g><path d="m.376 270c-.249-4.635-.376-9.303-.376-14 0-141.385 114.615-256 256-256s256 114.615 256 256c0 4.697-.126 9.365-.376 14z" fill="#0a4499"/><path d="m512 256c0 141.385-114.615 256-256 256s-256-114.615-256-256 114.615-256 256-256 256 114.615 256 256z" fill="#0a4499"/><path d="m16.415 346.389c-10.61-28.106-16.415-58.569-16.415-90.389 0-5.969.205-11.891.607-17.759 7.514-1.343 14.623-3.796 21.135-7.177 20.4-10.59 45.142-10.412 65.578.112 10.219 5.262 21.895 8.246 34.295 8.246 12.401 0 24.079-2.984 34.298-8.248 20.511-10.563 45.277-10.563 65.788 0 10.22 5.263 21.897 8.248 34.298 8.248s24.079-2.984 34.298-8.248c20.511-10.563 45.277-10.563 65.788 0 10.219 5.263 21.897 8.248 34.298 8.248 12.4 0 24.076-2.984 34.295-8.246 20.437-10.524 45.179-10.702 65.579-.112 6.512 3.381 13.621 5.834 21.135 7.177.403 5.868.608 11.79.608 17.759 0 31.82-5.805 62.283-16.415 90.389-1.816-.765-3.593-1.599-5.327-2.5-20.4-10.59-45.142-10.412-65.579.112-10.219 5.262-21.895 8.246-34.295 8.246-12.401 0-24.079-2.984-34.298-8.248-20.511-10.563-45.277-10.563-65.788 0-10.22 5.263-21.897 8.248-34.298 8.248s-24.079-2.984-34.298-8.248c-20.511-10.563-45.277-10.563-65.788 0-10.219 5.263-21.897 8.248-34.298 8.248-12.4 0-24.076-2.984-34.295-8.246-20.436-10.524-45.179-10.702-65.578-.112-1.736.901-3.513 1.735-5.328 2.5z" fill="#0956c6"/><path d="m490.258 333.159c2.786 1.447 5.682 2.723 8.671 3.815-33.883 101.7-129.843 175.026-242.929 175.026-13.086 0-25.943-.982-38.5-2.876-.978-.148-1.192-3.049-2.166-3.207-3.011-.49-6.109-.823-9.083-1.417-1.033-.206-2.722 2.12-3.75 1.901-89.091-18.942-161.043-84.228-189.429-169.427 2.99-1.093 5.885-2.369 8.671-3.815 20.4-10.59 45.142-10.412 65.578.112 10.219 5.262 21.895 8.246 34.295 8.246 12.401 0 24.079-2.985 34.298-8.248 20.511-10.563 45.277-10.563 65.788 0 10.22 5.263 21.897 8.248 34.298 8.248s24.079-2.985 34.298-8.248c20.511-10.563 45.277-10.563 65.788 0 10.219 5.263 21.897 8.248 34.298 8.248 12.4 0 24.076-2.984 34.295-8.246 20.437-10.524 45.179-10.702 65.579-.112z" fill="#2476ed"/><path d="m100 92.077h-40c-11.046 0-20-8.954-20-20v-12.077h60z" fill="#607882"/><path d="m90 70h-62.856c-4.65 0-9.188 1.43-12.997 4.097l-9.427 6.599c-1.988 1.392-4.72-.031-4.72-2.458v-18.238c0-22.091 17.909-40 40-40h70z" fill="#738c96"/><path d="m40 20h24.543c3.384 3.598 5.457 8.441 5.457 13.77 0 11.103-9 20.103-20.103 20.103h-44.794c-1.566 0-3.09-.179-4.553-.518 3.165-18.929 19.622-33.355 39.45-33.355z" fill="#87a0af"/><path d="m217.5 350v159.124c-5.05-.762-10.051-1.671-15-2.723v-156.401z" fill="#80bf95"/><path d="m286.606 433.55c-1.307 2.432-3.845 3.95-6.606 3.95h-133.38l11.063 12.538c2.74 3.106 2.444 7.845-.662 10.586-1.426 1.258-3.196 1.876-4.959 1.876-2.078 0-4.144-.858-5.627-2.538l-22.059-25c-1.951-2.21-2.425-5.359-1.212-8.047 1.212-2.688 3.888-4.415 6.836-4.415h136.043l-45.239-68.361c-2.286-3.455-1.339-8.108 2.115-10.394 3.454-2.287 8.107-1.339 10.394 2.115l52.941 80c1.524 2.304 1.66 5.258.352 7.69z" fill="#add6bb"/><path d="m370.173 317.975-3.161 148.907c-.102 4.806-6.258 6.716-9.057 2.808-9.083-12.683-19.146-25.757-30.288-39.023-28.769-34.253-57.994-61.76-84.547-83.551-22.048 4.777-45.651 3.773-68.563-4.158-65.901-22.81-100.687-94.996-79.11-161.31l24.974-76.752.041-.128c2.026-6.268-2.647-12.69-9.234-12.69h-31.228v-30c0-33.137 26.863-60 60-60h2.124c33.137 0 60 26.863 60 60v28.55c.378 12.896-1.414 26.067-5.629 39.021l-20.853 64.089c12.053-15.332 30.913-25.013 51.912-24.567 80.474 1.707 144.327 68.329 142.619 148.804z" fill="#ff5e93"/><path d="m260 369.25h-.014c.2 5.365-1.748 10.796-5.844 14.892-6.869 6.869-17.492 7.697-25.266 2.483-2.733 7.79-10.152 13.375-18.876 13.375-11.046 0-20-8.954-20-20v-32.75c-5.012-1.061-10.015-2.435-14.985-4.135-66.15-22.621-101.224-94.911-79.592-161.391l24.999-76.829.041-.128c2.026-6.268-2.647-12.69-9.234-12.69h-31.229v-30c0-27.331 18.274-50.393 43.269-57.636-8.3 10.293-13.269 23.384-13.269 37.636v15c0 8.284 6.716 15 15 15 14.592 0 24.936 14.239 20.425 28.116l-19.95 61.368c-21.75 66.844 13.737 139.569 80.406 161.846 32.71 10.929 66.738 7.819 95.568-6.012-12.139 10.845-26.237 19.264-41.449 24.828z" fill="#ff3c7d"/><path d="m430 329.625v167.42c0 4.511-5.502 6.715-8.617 3.452l-201.914-211.53c-12.497-13.091-19.469-30.494-19.469-48.592 0-38.867 31.508-70.375 70.375-70.375 88.159 0 159.625 71.466 159.625 159.625z" fill="#ffa2c1"/><path d="m430 329.625c0 .186-.001.372-.003.557-.142 14.62-21.374 16.216-23.905 1.817-2.071-11.783-5.438-23.52-10.103-35.051-17.559-43.403-51.462-78.756-95.463-99.549-3.744-1.767-8.215-.169-9.985 3.577-1.77 3.745-.168 8.215 3.577 9.985 40.584 19.177 71.825 51.712 87.966 91.612 7.946 19.642 11.761 39.919 11.464 59.887-.167 11.175-9.749 20.032-20.871 18.94-.122-.012-.244-.024-.366-.037-8.996-.949-15.95-8.301-16.814-17.306-.949-9.9-2.784-19.852-5.517-29.767-12.441-45.137-42.045-84.161-83.357-109.885-3.588-2.234-8.329-1.069-10.461 2.62-2.036 3.523-.718 8.084 2.734 10.239 33.048 20.636 56.992 50.076 70.249 82.623 5.008 12.296-10.707 22.437-19.875 12.833l-61.585-64.517c-12.896-13.51-20.39-31.45-20.189-50.126.171-15.869 5.595-30.479 14.615-42.172 8.651-3.798 18.211-5.906 28.265-5.906 88.158.001 159.624 71.467 159.624 159.626z" fill="#ffaee0"/><path d="m150 50c0 5.523-4.477 10-10 10s-10-4.477-10-10 4.477-10 10-10 10 4.477 10 10z" fill="#3f4a4a"/></g></svg>