<svg id="Capa_1" enable-background="new 0 0 512 512" height="512" viewBox="0 0 512 512" width="512" xmlns="http://www.w3.org/2000/svg"><g><path d="m512 256c0 11.704-.785 23.224-2.306 34.511-.372 2.758-8.485 6.76-8.944 9.489-20.343 121.039-270.75 207.279-346.75 181-2.626-.908-16.271 2.118-18.715.809-80.518-43.135-135.285-128.076-135.285-225.809 0-111.554 71.352-206.443 170.907-241.518 1.606-.566 5.638 4.053 7.259 3.518 12-3.958 23.559-8.717 36.271-10.875 1.544-.262 1.509-4.015 3.062-4.249 12.558-1.894 25.415-2.876 38.501-2.876 141.385 0 256 114.615 256 256z" fill="#356845"/><path d="m211.746 415.174 70.763-379.414c1.013-5.429 6.235-9.01 11.664-7.997l30.698 5.725c5.429 1.013 9.01 6.235 7.997 11.664l-70.763 379.414c-1.013 5.429-6.235 9.01-11.664 7.997l-30.698-5.725c-5.429-1.013-9.01-6.235-7.997-11.664z" fill="#b9801b"/><path d="m509.693 290.511c-8.812 65.394-42.314 122.957-90.817 163-1.208.997-3.276-2.111-4.502-1.136-5.751 4.574-12.736 10.051-18.875 14.125-1.018.676-.158 4.294-1.186 4.956-17.086 10.991-35.565 20.006-55.112 26.72-32.168 11.049-62.176-21.068-48.854-52.363 36.973-86.854 120.559-149.092 219.346-155.302z" fill="#54a770"/><path d="m475.785 49.684c8.44-.648 15.458 6.371 14.823 14.812-3.307 43.952-5.008 88.661-5.008 133.983 0 45.321 1.7 90.03 5.008 133.982.635 8.441-6.383 15.46-14.823 14.812-71.138-5.463-144.619-8.324-219.786-8.324-75.166 0-148.646 2.861-219.784 8.324-8.44.648-15.458-6.371-14.823-14.812 3.307-43.952 5.008-88.66 5.008-133.981 0-45.322-1.7-90.031-5.008-133.982-.635-8.441 6.383-15.46 14.823-14.812 71.138 5.463 144.618 8.324 219.784 8.324 75.167-.001 148.647-2.863 219.786-8.326z" fill="#e4ab45"/><path d="m50.049 346.245c-4.621.331-9.232.674-13.834 1.027-8.44.648-15.458-6.371-14.823-14.812 3.307-43.952 5.008-88.66 5.008-133.981 0-45.322-1.7-90.031-5.008-133.982-.635-8.441 6.383-15.46 14.823-14.812 4.602.353 9.213.696 13.834 1.027-.062.773-.066 1.563-.006 2.365 3.589 47.698 5.434 96.217 5.434 145.402 0 49.184-1.845 97.703-5.434 145.401-.06.802-.056 1.592.006 2.365z" fill="#df9d28"/><path d="m485.648 185.354c-.032 4.369-.048 8.744-.048 13.125 0 1.283.002 2.565.004 3.847-74.585 5.147-151.304 7.831-229.606 7.831-78.301 0-155.02-2.684-229.604-7.831.003-1.282.004-2.564.004-3.847 0-4.381-.016-8.755-.048-13.124 74.598 5.149 151.331 7.834 229.647 7.834 78.319 0 155.053-2.685 229.651-7.835zm1.613 90.48c-75.105-5.222-152.38-7.946-231.26-7.946-78.881 0-156.157 2.723-231.262 7.946-.245 5.687-.517 11.362-.815 17.025 75.361-5.259 152.91-8.003 232.077-8.003 79.166 0 156.715 2.744 232.075 8.003-.298-5.663-.57-11.339-.815-17.025zm-231.262-137.707c78.752 0 155.905-2.714 230.894-7.92.216-5.684.458-11.358.728-17.019-75.218 5.239-152.615 7.971-231.622 7.971-79.006 0-156.402-2.732-231.62-7.971.269 5.662.512 11.335.728 17.019 74.989 5.206 152.14 7.92 230.892 7.92z" fill="#b9801b"/><path d="m249.097 168.344.58 59.946c0 4.138-2.306 7.486-5.875 8.601-3.496 1.093-7.184-.269-9.398-3.467l-28.199-40.833v37.862c0 4.142-3.358 7.5-7.5 7.5s-7.5-3.358-7.5-7.5v-61.921c0-3.282 2.134-6.183 5.268-7.16 3.134-.976 6.539.198 8.403 2.898l29.595 42.855-.374-38.637c-.04-4.142 3.285-7.532 7.427-7.572h.074c4.109.001 7.459 3.311 7.499 7.428zm143.812 54.558h-.043c-4.884.027-10.122.047-14.182.052v-54.537c0-4.142-3.358-7.5-7.5-7.5s-7.5 3.358-7.5 7.5v61.985c0 3.652 2.631 6.774 6.231 7.392.542.093.958.165 7.785.165 3.318 0 8.153-.017 15.25-.057 4.142-.023 7.481-3.4 7.458-7.542-.023-4.128-3.376-7.458-7.499-7.458zm-312.301-61.982c-4.105.123-7.269 3.704-7.269 7.811v49.268c0 1.891-.966 3.602-2.522 4.465-1.034.573-2.142.536-3.145.246-2.622-.758-5.45.119-7.386 2.043-3.969 3.944-2.319 10.721 3.032 12.353 1.788.546 3.713.878 5.725.878 2.887 0 5.955-.685 9.054-2.406 6.317-3.506 10.242-10.243 10.242-17.58v-49.583c0-4.217-3.483-7.622-7.731-7.495zm372.407 62.034h-18.401v-15.735h16.491c4.142 0 7.5-3.358 7.5-7.5s-3.358-7.5-7.5-7.5h-16.491v-15.735h18.401c4.142 0 7.5-3.358 7.5-7.5s-3.358-7.5-7.5-7.5h-25.901c-4.142 0-7.5 3.358-7.5 7.5v61.471c0 4.142 3.358 7.5 7.5 7.5h25.901c4.142 0 7.5-3.358 7.5-7.5s-3.358-7.501-7.5-7.501zm-118.817-31.019h-18.558c-4.142 0-7.5 3.358-7.5 7.5s3.358 7.5 7.5 7.5h10.229c-1.936 8.448-7.449 16.019-18.448 16.019-12.968 0-23.519-10.55-23.519-23.519s10.55-23.519 23.519-23.519c4.713 0 9.259 1.387 13.144 4.012 3.433 2.319 8.095 1.416 10.414-2.016 2.319-3.433 1.416-8.095-2.016-10.414-6.375-4.306-13.823-6.583-21.541-6.583-21.239 0-38.519 17.279-38.519 38.519s17.279 38.519 38.519 38.519c20.182 0 34.276-15.839 34.276-38.519 0-4.141-3.358-7.499-7.5-7.499zm-171.398-31.018c-4.142 0-7.5 3.358-7.5 7.5v42.644c0 3.045-.86 6.973-7.565 10.35-2.063 1.039-4.299 1.543-6.839 1.543h-.025c-2.788-.004-5.211-.688-7.407-2.091-5.204-3.325-6.271-6.305-6.271-9.758v-42.688c0-4.142-3.358-7.5-7.5-7.5s-7.5 3.358-7.5 7.5v42.688c0 9.269 4.439 16.805 13.194 22.398 4.61 2.946 9.812 4.443 15.463 4.451h.044c4.87 0 9.441-1.059 13.586-3.146 13.074-6.584 15.819-16.548 15.819-23.747v-42.644c.001-4.142-3.357-7.5-7.499-7.5z" fill="#fff5f5"/><path d="m270 180c-25.933 0-48.022-16.452-56.402-39.488-7.118-8.496-11.098-19.287-11.098-30.512v-.93c-10.235 18.445-29.91 30.93-52.5 30.93 0-30.597 22.903-55.845 52.5-59.536v-51.394c-10.235 18.445-29.91 30.93-52.5 30.93 0-18.204 8.107-34.515 20.908-45.518 14.944-5.265 30.523-9.182 46.592-11.606v27.588c29.597 3.691 52.5 28.939 52.5 59.536-22.59 0-42.265-12.484-52.5-30.93v50.93c0 3.688.629 7.309 1.822 10.72 28.71 4.478 50.678 29.314 50.678 59.28z" fill="#69b482"/><path d="m425.913 416.489c22.541 1.019 44.47 3.757 65.539 8.063 2.872.587 3.266 4.555.566 5.695-38.361 16.211-81.042 27.291-126.493 31.81-9.662.961-40.347-44.617-39.778-47.652 5.255-28.017 13.471-56.367 24.809-84.457 17.096-42.355 39.712-80.21 66.039-112.478 1.853-2.271 5.55-.779 5.308 2.142-3.15 37.902-11.763 77.009-26.255 115.769 24.971-24.487 51.901-45.192 79.805-61.922 2.514-1.507 5.485 1.152 4.265 3.817-15.69 34.276-36.83 67.843-63.288 99.143 25.37-10.837 51.027-18.997 76.461-24.545 2.864-.625 4.829 2.844 2.821 4.98-20.312 21.606-43.68 41.716-69.799 59.635z" fill="#356845"/><path d="m415.84 384.881c3.567 21.972 4.666 45.028 3.037 68.631-7.812 6.449-16.013 12.444-24.563 17.944-34.913-2.453-59.546 1.764-61.929 12.366-.952 4.234 1.74 9.067 7.394 14.155-26.251 9.087-54.438 14.023-83.779 14.023-38.352 0-74.733-8.434-107.392-23.547.445-5.484 1.036-10.995 1.778-16.527 46.463 6.236 81.564 2.724 84.433-10.036 2.868-12.76-27.354-30.955-72.016-45.203 9.403-29.476 22.709-56.385 38.93-79.935 32.939 15.171 58.48 20.169 64.522 10.848 5.686-8.772-7.254-28.128-31.546-50.275 29.6-29.133 64.549-49.333 101.339-57.788 29.633 23.387 52.575 56.6 66.861 95.597-31.433 9.62-51.412 21.577-50.027 31.938 1.472 11.011 26.696 17.424 62.958 17.809z" fill="#b9e746"/><path d="m201.733 336.753c17.176 7.911 32.34 13.055 43.777 14.846-13.515 27.879-22.122 58.579-24.696 90.979-12.691-8.773-33.105-17.945-58.011-25.89 9.403-29.476 22.709-56.386 38.93-79.935zm134.315-97.216c-36.791 8.456-71.74 28.655-101.339 57.788 11.135 10.151 19.883 19.715 25.547 27.943 20.906-32.648 49.019-60.237 82.095-80.522-2.066-1.786-4.167-3.523-6.303-5.209zm-185.662 232.389c-.743 5.532-1.334 11.043-1.778 16.527 23.516 10.882 48.961 18.301 75.683 21.602-2.293-12.377-3.695-25.067-4.138-38.001-14.959 3.861-40.037 3.862-69.767-.128z" fill="#9bcf1b"/><path d="m332.53 277.711c-3.013 43.816-14.932 116.857-33.318 198.654-2.537 11.285-5.113 22.366-7.713 33.193-10.696 1.484-21.603 2.307-32.679 2.426 2.844-13.86 5.905-28.11 9.171-42.637 18.387-81.797 38.873-152.913 54.9-193.803 2.082-5.311 10.031-3.524 9.639 2.167z" fill="#84b017"/><path d="m169.704 443.62c-13.295 8.094-28.316 12.719-43.628 13.647 1.375 11.103.797 22.461-1.823 33.515-3.183 13.43-18.029 20.416-30.356 14.208-4.528-2.28-7.409-7.051-11.644-10.127-4.235-3.077-9.662-4.343-13.23-7.945-9.713-9.805-7.657-26.084 4.132-33.261 13.295-8.094 28.316-12.719 43.628-13.647-1.375-11.103-.797-22.461 1.823-33.515 3.183-13.43 18.029-20.416 30.356-14.208 4.528 2.28 7.409 7.051 11.644 10.127s9.662 4.343 13.23 7.945c9.714 9.805 7.657 26.084-4.132 33.261z" fill="#ff5e93"/><path d="m173.837 486.919c-3.568 3.602-8.995 4.868-13.23 7.945s-7.116 7.847-11.644 10.127c-12.327 6.208-27.173-.779-30.356-14.208-2.62-11.054-3.198-22.412-1.823-33.515-15.312-.928-30.333-5.553-43.628-13.647-11.789-7.177-13.846-23.456-4.132-33.261 3.568-3.602 8.995-4.868 13.23-7.945s7.116-7.847 11.644-10.127c12.327-6.208 27.173.779 30.356 14.208 2.62 11.054 3.198 22.412 1.823 33.515 15.312.928 30.333 5.553 43.628 13.647 11.788 7.177 13.845 23.456 4.132 33.261z" fill="#ffa2c1"/><path d="m146.871 449.839c0 13.807-11.193 25-25 25s-25-11.193-25-25 11.193-25 25-25 25 11.193 25 25z" fill="#e20a62"/><path d="m133.492 449.839c0 6.418-5.203 11.621-11.621 11.621s-11.621-5.203-11.621-11.621 5.203-11.621 11.621-11.621 11.621 5.203 11.621 11.621z" fill="#b40042"/><path d="m240.35 345.3c-8.752 5.329-18.641 8.373-28.721 8.984.905 7.309.525 14.786-1.2 22.064-2.095 8.841-11.869 13.441-19.984 9.354-2.981-1.501-4.878-4.642-7.666-6.667s-6.361-2.859-8.71-5.23c-6.395-6.455-5.04-17.172 2.72-21.897 8.752-5.329 18.641-8.373 28.721-8.984-.905-7.309-.525-14.786 1.2-22.064 2.095-8.841 11.869-13.441 19.984-9.354 2.981 1.501 4.878 4.642 7.666 6.667s6.361 2.859 8.71 5.23c6.395 6.455 5.041 17.172-2.72 21.897z" fill="#d5f1fe"/><path d="m243.07 373.804c-2.349 2.371-5.922 3.205-8.71 5.23s-4.685 5.166-7.666 6.667c-8.115 4.087-17.889-.513-19.984-9.354-1.725-7.277-2.105-14.754-1.2-22.064-10.08-.611-19.969-3.656-28.721-8.984-7.761-4.725-9.115-15.442-2.72-21.896 2.349-2.371 5.922-3.205 8.71-5.23s4.685-5.166 7.666-6.667c8.115-4.087 17.889.513 19.984 9.354 1.725 7.277 2.105 14.754 1.2 22.064 10.08.611 19.969 3.656 28.721 8.984 7.761 4.725 9.115 15.441 2.72 21.896z" fill="#fff5f5"/><path d="m225.318 349.394c0 9.09-7.369 16.458-16.458 16.458-9.09 0-16.458-7.369-16.458-16.458 0-9.09 7.369-16.458 16.458-16.458 9.09-.001 16.458 7.368 16.458 16.458z" fill="#0691ce"/><path d="m216.511 349.394c0 4.225-3.425 7.651-7.651 7.651s-7.651-3.425-7.651-7.651c0-4.225 3.425-7.651 7.651-7.651s7.651 3.425 7.651 7.651z" fill="#93dcfc"/></g></svg>