<svg id="Capa_1" enable-background="new 0 0 512 512" height="250" viewBox="0 0 512 512" width="512" xmlns="http://www.w3.org/2000/svg"><g><path d="m412.885 447.873h-302.885v-402.186c41.412-28.802 91.734-45.687 146-45.687 141.475 0 257.748 117.801 255.98 259.265-.878 70.244-30.047 133.673-76.639 179.418-5.995 5.885-14.056 9.19-22.456 9.19z" fill="#fff04a"/><path d="m363.921 81.869c.723 22.42-17.792 41.836-40.221 42.135-14.124.189-26.627-6.801-34.093-17.552-6.219 24.51-28.428 42.642-54.872 42.642-28.23 0-51.633-20.664-55.909-47.692-5.89 2.076-12.226 3.206-18.826 3.206-14.209 0-27.194-5.235-37.134-13.881-18.13-15.771-15.223-44.76 5.603-56.749 37.547-21.615 81.095-33.978 127.531-33.978 44.792 0 86.897 11.504 123.522 31.718-1.303 14.542-8.105 27.5-18.312 36.78 1.612 4.169 2.559 8.669 2.711 13.371zm-242.402 128.339c-31.264 0-56.608 25.344-56.608 56.608s25.344 56.608 56.608 56.608 56.608-25.344 56.608-56.608-25.344-56.608-56.608-56.608z" fill="#489160"/><path d="m351.084 18.24c-2.489 2.188-5.279 4.089-8.348 5.627-12.628 6.33-26.928 5.492-38.335-.927 5.092 24.768-6.986 50.771-30.782 62.303-25.404 12.311-55.476 3.922-71.111-18.535-4.395 4.437-9.604 8.217-15.543 11.095-12.786 6.196-26.755 7.149-39.471 3.703-16.78-4.547-26.668-20.123-25.736-35.914.296-5.023 3.123-9.568 7.493-12.063 37.37-21.336 80.635-33.529 126.749-33.529 33.6 0 65.687 6.473 95.084 18.24z" fill="#3d7a51"/><path d="m129.823 478.796c-77.523-43.998-129.823-127.289-129.823-222.796s52.3-178.798 129.823-222.796z" fill="#df9d28"/><path d="m129.823 406.369v72.427c-77.523-43.998-129.823-127.289-129.823-222.796 0-81.481 38.068-154.071 97.388-200.956-34.469 43.611-55.044 98.708-55.044 158.612 0 20.552 2.422 40.539 6.996 59.689v-53.023c0-5.351 4.338-9.689 9.689-9.689 5.351 0 9.689 4.338 9.689 9.689v106.635c15.013 30.367 35.871 57.328 61.105 79.412zm-33.794-313.883c-5.351 0-9.689 4.338-9.689 9.689v112.635c0 5.351 4.338 9.689 9.689 9.689 5.351 0 9.689-4.338 9.689-9.689v-112.635c.001-5.351-4.337-9.689-9.689-9.689zm.001 167.514c-5.351 0-9.689 4.338-9.689 9.689v27.607c0 5.351 4.338 9.689 9.689 9.689 5.351 0 9.689-4.338 9.689-9.689v-27.607c0-5.351-4.338-9.689-9.689-9.689z" fill="#b9801b"/><path d="m268.325 197.415-8.325 4.954v12.631c0 8.284-6.716 15-15 15h-31.436l-39.77 23.665c-21.358 12.709-48.974 5.697-61.683-15.66-2.74-4.605-2.73-10.083-.454-14.524-12.984-7.894-21.657-22.175-21.657-38.481 0-8.284 6.716-15 15-15h2.63c-10.511-11.844-14.442-28.89-8.798-44.881 2.757-7.812 11.325-11.91 19.137-9.153l10.929 3.857c-10.709-17.347-8.543-40.388 6.5-55.43 5.858-5.858 15.355-5.858 21.213 0l81.303 81.303c7.08-4.019 16.107-1.652 20.29 5.377l15.341 25.781c4.236 7.119 1.899 16.325-5.22 20.561zm243.675-12.415c0-8.284-6.716-15-15-15h-2.63c10.511-11.844 14.442-28.89 8.798-44.881-2.757-7.812-11.325-11.91-19.137-9.153l-10.929 3.857c10.709-17.347 8.543-40.388-6.5-55.431-5.858-5.858-15.355-5.858-21.213 0l-81.303 81.303c-7.08-4.019-16.107-1.652-20.29 5.377l-15.341 25.781c-4.236 7.119-1.899 16.325 5.22 20.561l8.325 4.954v12.632c0 8.284 6.716 15 15 15h31.436l39.77 23.665c21.358 12.709 48.974 5.697 61.683-15.66 2.74-4.605 2.73-10.083.454-14.524 12.984-7.894 21.657-22.175 21.657-38.481z" fill="#9bb9c3"/><path d="m241.155 199.858-5.679 3.379v8.617c0 5.652-4.582 10.233-10.233 10.233h-21.446l-27.131 16.144c-14.57 8.67-33.41 3.887-42.08-10.684-1.869-3.142-1.862-6.879-.31-9.908-8.858-5.385-14.775-15.127-14.775-26.252 0-5.652 4.582-10.233 10.233-10.233h1.794c-7.171-8.08-9.852-19.709-6.002-30.618 1.881-5.329 7.726-8.125 13.056-6.244l7.456 2.631c-7.306-11.834-5.828-27.553 4.434-37.815 3.996-3.996 10.476-3.996 14.472 0l55.465 55.465c4.83-2.742 10.989-1.127 13.842 3.668l10.466 17.588c2.889 4.859 1.295 11.139-3.562 14.029zm118.258-14.027 10.466-17.588c2.853-4.795 9.012-6.41 13.842-3.668l55.465-55.465c3.996-3.996 10.476-3.996 14.472 0 10.262 10.262 11.74 25.981 4.434 37.815l7.456-2.631c5.329-1.881 11.175.915 13.056 6.244 3.85 10.909 1.169 22.538-6.002 30.618h1.794c5.652 0 10.233 4.582 10.233 10.233 0 11.124-5.917 20.867-14.775 26.252 1.552 3.03 1.559 6.767-.31 9.908-8.67 14.57-27.51 19.354-42.08 10.684l-27.131-16.144h-21.446c-5.652 0-10.233-4.582-10.233-10.233v-8.617l-5.679-3.379c-4.858-2.892-6.452-9.172-3.562-14.029z" fill="#b4d2d7"/><path d="m446.385 160v85c0 74.558-60.441 135-135 135h-20.769c-74.558 0-135-60.441-135-135v-85c0-33.137 26.863-60 60-60h47.101c11.341 0 22.501-2.846 32.457-8.276l35.511-19.37c1.542-.841 3.317.643 2.761 2.31l-5.672 17.017c-1.364 4.093 1.682 8.319 5.996 8.319 6.24 0 12.324-1.95 17.402-5.577l17.389-12.421c1.228-.878 2.944-.072 3.053 1.434l.778 10.702c.24 3.304 2.991 5.862 6.304 5.862h7.689c33.137 0 60 26.863 60 60z" fill="#87a0af"/><path d="m323.192 379.49c-3.891.337-7.829.51-11.808.51h-20.77c-74.558 0-135-60.441-135-135v-85c0-33.137 26.863-60 60-60h3.236c-11.605 10.941-18.85 26.458-18.85 43.667v101.333c0 70.58 54.163 128.509 123.192 134.49z" fill="#738c96"/><path d="m436 432.228v5.805c-46.244 45.731-109.825 73.967-180 73.967-48.289 0-93.456-13.371-132-36.611v-119.933h235.228c42.4 0 76.772 34.372 76.772 76.772z" fill="#87a0af"/><path d="m296.545 508.807c-13.206 2.101-26.748 3.193-40.545 3.193-48.289 0-93.456-13.371-132-36.611v-108.319c76.791 18.443 140.112 71.494 172.545 141.737z" fill="#e1ebf0"/><path d="m248.881 492.783c25.559 6.465 45.848 12.09 47.664 16.024-13.206 2.101-26.748 3.193-40.545 3.193-48.289 0-93.456-13.371-132-36.611v-108.319c4.797 1.152 9.542 2.439 14.229 3.857 9.036 59.166 52.627 107.18 110.652 121.856z" fill="#b4d2d7"/><path d="m100 395.456c5.523 0 10 4.477 10 10s-4.477 10-10 10c5.523 0 10 4.477 10 10s-4.477 10-10 10h-70c-5.523 0-10-4.477-10-10s4.477-10 10-10c-5.523 0-10-4.477-10-10s4.477-10 10-10c-5.523 0-10-4.477-10-10s4.477-10 10-10c-5.523 0-10-4.477-10-10s4.477-10 10-10h70c5.523 0 10 4.477 10 10s-4.477 10-10 10c5.523 0 10 4.477 10 10s-4.477 10-10 10z" fill="#9bb9c3"/><path d="m51.34 435.456h-20.997c-5.326 0-9.977-4.019-10.321-9.334-.243-3.756 1.588-7.103 4.46-9.006 1.186-.786 1.199-2.527.012-3.311-2.707-1.789-4.493-4.86-4.493-8.348s1.786-6.559 4.493-8.348c1.182-.781 1.182-2.522 0-3.303-2.707-1.789-4.493-4.86-4.493-8.348s1.786-6.559 4.493-8.348c1.187-.785 1.174-2.525-.012-3.311-2.871-1.904-4.703-5.25-4.46-9.006.344-5.315 4.995-9.335 10.321-9.335h20.997c-5.523 0-10 4.477-10 10 0 3.488 1.786 6.559 4.493 8.348 1.182.781 1.182 2.522 0 3.303-2.707 1.789-4.493 4.86-4.493 8.348s1.786 6.559 4.493 8.348c1.182.781 1.182 2.522 0 3.303-2.707 1.789-4.493 4.86-4.493 8.348s1.786 6.559 4.493 8.348c1.182.781 1.182 2.522 0 3.303-2.707 1.789-4.493 4.86-4.493 8.348 0 5.524 4.477 10.001 10 10.001z" fill="#87a0af"/><path d="m70 430v-68.848c0-11.046 8.954-20 20-20h227.978c42.4 0 76.772 34.372 76.772 76.772v32.076h-304.75c-11.046 0-20-8.954-20-20z" fill="#87a0af"/><path d="m320 450h-230c-11.046 0-20-8.954-20-20h250c5.523 0 10 4.477 10 10s-4.477 10-10 10z" fill="#738c96"/><path d="m360.897 185c0-8.284 8.954-15 20-15s20 6.716 20 15-8.954 15-20 15-20-6.716-20-15zm-137.5 15c11.046 0 20-6.716 20-15s-8.954-15-20-15-20 6.716-20 15 8.954 15 20 15z" fill="#495959"/><path d="m358.598 180.509c2.312 0 4.591 1.065 6.061 3.074 4.204 5.75 9.563 8.917 15.092 8.917 5.528 0 10.888-3.167 15.092-8.917 2.445-3.344 7.138-4.07 10.481-1.628 3.344 2.445 4.073 7.138 1.628 10.481-7.103 9.714-16.763 15.063-27.201 15.063-10.439 0-20.099-5.35-27.202-15.063-2.444-3.344-1.715-8.036 1.628-10.481 1.335-.976 2.885-1.445 4.421-1.446zm-161.921 1.446c-3.344 2.445-4.073 7.138-1.628 10.481 7.103 9.714 16.763 15.063 27.202 15.063 10.438 0 20.099-5.35 27.201-15.063 2.444-3.344 1.715-8.036-1.628-10.481-3.343-2.442-8.036-1.716-10.481 1.628-4.204 5.75-9.563 8.917-15.092 8.917s-10.889-3.167-15.092-8.917c-1.469-2.009-3.749-3.074-6.061-3.074-1.537.001-3.087.47-4.421 1.446z" fill="#607882"/><path d="m382 291v18c0 28.054-22.651 50.817-50.662 50.999-8.478 6.284-18.974 10.001-30.338 10.001-11.364 0-21.86-3.717-30.338-10.001-28.011-.182-50.662-22.945-50.662-50.999v-18c0-20.849 12.511-38.776 30.434-46.683 3.274-25.009 24.665-44.317 50.566-44.317 25.901 0 47.292 19.308 50.566 44.317 17.923 7.907 30.434 25.834 30.434 46.683z" fill="#e1ebf0"/><path d="m301 290c-17.121 0-31-13.879-31-31v-58c0-17.121 13.879-31 31-31 17.121 0 31 13.879 31 31v58c0 17.121-13.879 31-31 31z" fill="#495959"/><path d="m332 201v58c0 17.121-13.879 31-31 31-1.378 0-2.736-.091-4.066-.265-4.946-5.493-7.956-12.762-7.956-20.735v-78c0-7.973 3.01-15.242 7.956-20.735 1.331-.174 2.688-.265 4.066-.265 17.121 0 31 13.879 31 31z" fill="#607882"/><path d="m296 264.833c0 5.523-4.477 10-10 10s-10-4.477-10-10 4.477-10 10-10 10 4.478 10 10zm20-10c-5.523 0-10 4.477-10 10s4.477 10 10 10 10-4.477 10-10c0-5.522-4.477-10-10-10z" fill="#3f4a4a"/><path d="m359.311 319.601c-8.439 11.543-19.875 17.899-32.201 17.899-9.568 0-18.6-3.83-26.11-10.943-7.51 7.113-16.541 10.943-26.109 10.943-12.327 0-23.763-6.356-32.202-17.899-2.444-3.345-1.715-8.037 1.628-10.481s8.036-1.716 10.481 1.628c5.541 7.579 12.676 11.753 20.092 11.753 7.172 0 14.083-3.905 19.542-11.019.509-.901 1.214-1.711 2.104-2.362 1.366-.998 2.956-1.467 4.527-1.445 1.529.004 3.071.474 4.401 1.445.89.651 1.595 1.461 2.104 2.362 5.459 7.114 12.369 11.019 19.542 11.019 7.416 0 14.551-4.174 20.092-11.753 2.445-3.344 7.137-4.071 10.481-1.628 3.343 2.443 4.072 7.136 1.628 10.481z" fill="#9bb9c3"/></g></svg>