<svg id="Capa_1" enable-background="new 0 0 512 512" height="250" viewBox="0 0 512 512" width="512" xmlns="http://www.w3.org/2000/svg"><g><path d="m512 256c0 141.385-114.615 256-256 256s-256-114.615-256-256 114.615-256 256-256 256 114.615 256 256z" fill="#72d1fb"/><path d="m256 512c-67.738 0-129.331-26.309-175.119-69.266-4.186-11.382-6.472-23.682-6.472-36.516 0-58.422 47.36-105.782 105.782-105.782h266.074c21.504 0 41.51 6.417 58.207 17.441-27.674 111.49-128.423 194.123-248.472 194.123z" fill="#df9d28"/><path d="m334 488v2c0 3.692-.667 7.229-1.888 10.495-24.044 7.477-49.608 11.505-76.112 11.505-58.088 0-111.657-19.347-154.616-51.949 7.263-7.435 17.401-12.051 28.616-12.051h50c13.085 0 24.702 6.283 32 15.997 7.298-9.714 18.915-15.997 32-15.997h50c22.091 0 40 17.909 40 40z" fill="#e9cc5a"/><path d="m307.875 477.976v28.765c-4.949 1.019-9.951 1.895-15 2.623v-31.387c0-4.142 3.358-7.5 7.5-7.5s7.5 3.357 7.5 7.499zm-70.25-7.5c-4.142 0-7.5 3.358-7.5 7.5v32.732c4.96.498 9.961.854 15 1.065v-33.797c0-4.142-3.358-7.5-7.5-7.5zm31.375 0c-4.142 0-7.5 3.358-7.5 7.5v33.966c5.037-.106 10.039-.358 15-.751v-33.215c0-4.142-3.358-7.5-7.5-7.5zm-82.625 0c-4.142 0-7.5 3.358-7.5 7.5v22.202c4.937 1.558 9.939 2.97 15 4.232v-26.434c0-4.142-3.358-7.5-7.5-7.5zm-62.75 0c-1.817 0-3.482.646-4.78 1.721 4.019 2.555 8.114 5 12.28 7.333v-1.554c0-4.142-3.358-7.5-7.5-7.5zm31.375 0c-4.142 0-7.5 3.358-7.5 7.5v9.961c4.917 2.304 9.919 4.456 15 6.451v-16.412c0-4.142-3.358-7.5-7.5-7.5z" fill="#e4ab45"/><path d="m512 256c0 31.619-5.733 61.9-16.215 89.858l-18.016-15.216c14.874-17.61 21.185-32.646 18.756-44.689-1.729-8.577-7.338-13.062-18.847-21.598-12.242-9.08-27.479-20.381-40.146-42.606-19.224-33.725-18.607-67.863-16.529-85.212 2.402-20.043 9.331-39.705 20.15-57.328 7.382 7.729 14.284 15.918 20.66 24.522-5.767 11.531-9.524 23.874-11.023 36.375-1.319 11.011-2.712 39.563 12.805 66.787 9.545 16.743 20.938 25.194 31.956 33.366 5.669 4.205 11.423 8.472 16.441 13.647.005.698.008 1.396.008 2.094z" fill="#df9d28"/><path d="m511.826 95.656c-7.632 17.33-26.06 31.034-49.073 34.263-1.453.204-2.899.362-4.337.477-11.01 2.301-33.18-9.204-33.874-11.688-5.879-21.042-4.805-37.18 6.262-54.669 12.421-19.628 32.489-30.769 51.416-30.591 1.756.017 2.653 2.116 1.437 3.384-2.01 2.094-4.014 4.266-6.008 6.513 10.574-1.964 21.11-.949 30.214 3.171 6.458 14.271 5.286 32.058-3.028 47.996 1.518-.501 3.017-1.013 4.496-1.536 1.644-.583 3.199 1.083 2.495 2.68z" fill="#b9801b"/><path d="m506.879 46.086c.329.139.657.282.983.43 6.458 14.271 5.286 32.058-3.028 47.996 1.518-.501 3.017-1.013 4.496-1.536 1.645-.583 3.2 1.084 2.497 2.681-7.632 17.33-26.06 31.034-49.073 34.263-1.453.204-2.899.362-4.337.477-11.01 2.301-33.18-9.204-33.874-11.688-.018-.063-.035-.126-.052-.189 21.857-29.681 49.968-54.473 82.388-72.434z" fill="#c88a1d"/><path d="m409.416 366.975c-2.139 4.742-9.255 2.986-9.002-2.211.553-11.403.764-22.897.633-34.427-1.952 3.691-3.987 7.347-6.103 10.962-8.957 22.744-20.789 44.907-34.999 65.569-2.953 4.293-9.66 1.382-8.485-3.695.208-.898.413-1.797.616-2.697-13.66 22.108-32.183 41.191-54.056 53.465-5.345-2.074-10.567-4.526-15.641-7.312-.348.046-.592.078-.94.123-18.202 17.432-38.71 32.03-60.901 42.497-12.356-5.829-24.191-12.938-35.396-21.104-5.961 3.851-12.133 7.303-18.49 10.302-32.977-15.556-60.984-43.315-80.339-75.67-.017.01.009-.005-.008.005 1.518 5.253-5.378 8.458-8.386 4.085-11.451-16.649-21.357-34.272-29.459-52.389-2.294-5.129-10.02-3.256-9.734 2.355.009.185.019.372.028.561.251 5.186-6.868 6.929-9.003 2.196-23.106-51.213-34.429-100.331-27.686-150.966 1.046-7.858 2.496-15.572 4.328-23.128 6.352-26.195 16.369-49.177 29.242-69.054 36.658-61.356 106.314-93.115 177.133-95.279 19.847-10.441 40.965-17.354 62.657-21.079 4.879-.838 7.62 5.439 3.666 8.417-6.017 4.533-12.014 9.331-17.984 14.401.433.842.368.716.8 1.558 26.849-6.41 54.007-7.095 80.476-3.035 4.899.751 5.534 7.575.833 9.149-8.716 2.92-17.531 6.224-26.433 9.927 51.302 22.251 92.994 63.586 108.591 124.006 2.299 6.753 4.335 13.749 6.091 20.99 1.832 7.556 3.281 15.27 4.328 23.128 6.745 50.634-3.274 107.136-26.377 158.35z" fill="#b9801b"/><path d="m435.66 208.624c6.743 50.635-3.276 107.137-26.379 158.351-2.139 4.742-9.255 2.986-9.002-2.211.553-11.403.764-22.897.633-34.427-1.952 3.691-3.987 7.347-6.103 10.962-8.957 22.744-20.789 44.907-34.999 65.569-2.953 4.293-9.659 1.381-8.485-3.695.208-.898.413-1.797.616-2.697-13.66 22.108-32.183 41.191-54.056 53.465-5.345-2.074-10.567-4.526-15.641-7.312-.348.045-.592.078-.94.123-14.763 14.139-31.043 26.412-48.507 36.13-81.626-42.786-137.314-128.331-137.314-226.882 0-114.666 75.389-211.724 179.304-244.313-4.619 3.579-9.224 7.316-13.814 11.214.433.842.368.716.8 1.558 26.849-6.41 54.007-7.095 80.476-3.035 4.899.752 5.533 7.575.833 9.149-8.716 2.92-17.531 6.224-26.433 9.927 51.302 22.251 92.994 63.586 108.591 124.006 2.299 6.753 4.335 13.749 6.091 20.99 1.832 7.556 3.282 15.27 4.329 23.128z" fill="#c88a1d"/><path d="m382.269 219.125c0 79.878-72.41 180.875-161.733 180.875s-161.733-100.997-161.733-180.875 72.41-144.631 161.733-144.631 161.733 64.753 161.733 144.631z" fill="#e9cc5a"/><path d="m57.902 75.561c17.307.162 34.576 5.226 49.547 15.193-5.63 8.615-12.227 16.783-19.793 24.349s-15.734 14.164-24.349 19.793c-9.967-14.97-15.031-32.24-15.193-49.547-.052-5.434 4.352-9.839 9.788-9.788zm325.268 0c-17.307.162-34.576 5.226-49.547 15.193 5.63 8.615 12.228 16.783 19.794 24.349s15.734 14.164 24.349 19.793c9.967-14.97 15.031-32.24 15.193-49.547.051-5.434-4.353-9.839-9.789-9.788z" fill="#e9cc5a"/><path d="m306.913 305.683v22.289c0 22.091-17.909 40-40 40h-92.754c-22.092 0-40-17.909-40-40v-22.289c0-22.091 17.908-40 40-40h14.752v-102.827c0-17.466 14.159-31.625 31.625-31.625 17.466 0 31.625 14.159 31.625 31.625v102.828h14.752c22.092-.001 40 17.908 40 39.999z" fill="#f5e8b4"/><path d="m266.913 367.972h-71.457c-22.092 0-40-17.909-40-40v-22.289c0-22.091 17.908-40 40-40h14.752v-102.827c0-13.729 8.749-25.415 20.976-29.787 12.227 4.372 20.976 16.057 20.976 29.787v102.828h14.752c22.091 0 40 17.909 40 40v22.289c.001 22.09-17.907 39.999-39.999 39.999z" fill="#f9f1d2"/><path d="m306.913 313.345v14.627c0 .178-.001.356-.004.534-27.419 7.392-56.518 11.239-86.374 11.239-29.855 0-58.955-3.847-86.374-11.239-.002-.178-.004-.356-.004-.534v-14.627c24.792 7.289 51.472 11.535 79.293 12.153v-35.498h14.168v35.498c27.823-.618 54.504-4.864 79.295-12.153z" fill="#f1de96"/><path d="m120 120c-3.453 5.307-16.141 4.976-20 10-2.132 2.776-7.748 17.317-10 20-10.505-9.982-16.454-26.927-24.697-38.731-2.826-4.047 1.719-9.165 6.084-6.862 4.209 2.22 8.51 4.388 12.905 6.502-.897-3.588-1.703-7.198-2.419-10.826-.956-4.843 5.266-7.696 8.333-3.828 3.648 4.599 7.457 9.182 11.43 13.745 3.019 3.466 15.157 6.558 18.364 10z" fill="#b9801b"/><path d="m367.795 104.407c-4.209 2.22-8.51 4.388-12.905 6.502.897-3.588 1.703-7.198 2.419-10.826.956-4.843-5.266-7.696-8.333-3.828-6.418 8.092-13.336 16.134-20.765 24.107 2.125 3.265 11.51 3.312 13.79 6.471 3.473 4.814-.061 12.67 3.759 17.222 4.721-4.486 9.213-9.177 13.477-14.056 5.224-5.976 10.105-12.232 14.643-18.731 2.826-4.047-1.719-9.164-6.085-6.861z" fill="#c88a1d"/><path d="m170.193 181.387c0 21.325-17.288 38.613-38.613 38.613s-38.613-17.288-38.613-38.613 17.288-38.613 38.613-38.613 38.613 17.288 38.613 38.613zm139.298-38.613c21.325 0 38.613 17.288 38.613 38.613s-17.287 38.613-38.613 38.613-38.613-17.288-38.613-38.613 17.288-38.613 38.613-38.613z" fill="#e4ab45"/><path d="m152.968 181.387c0 10.28-8.333 18.613-18.613 18.613s-18.613-8.333-18.613-18.613 8.333-18.613 18.613-18.613 18.613 8.334 18.613 18.613zm153.749-18.613c10.28 0 18.613 8.333 18.613 18.613s-8.333 18.613-18.613 18.613-18.613-8.333-18.613-18.613c0-10.279 8.333-18.613 18.613-18.613z" fill="#3f4a4a"/><path d="m151.468 170.842c0 5.523-4.477 10-10 10s-10-4.477-10-10 4.477-10 10-10 10 4.477 10 10zm138.136 0c0 5.523 4.477 10 10 10s10-4.477 10-10-4.477-10-10-10-10 4.477-10 10z" fill="#f9f1d2"/><path d="m169.938 159.355c1.638 3.91-.203 8.408-4.113 10.047-1.955.819-4.058.768-5.875.024-1.818-.744-3.352-2.182-4.172-4.137-4.03-9.617-15.134-14.165-24.753-10.132-3.91 1.637-8.407-.204-10.047-4.113-1.638-3.91.203-8.407 4.113-10.047 17.427-7.302 37.543.935 44.847 18.358zm146.043-18.357c-17.427-7.302-37.543.934-44.847 18.357-1.638 3.91.203 8.408 4.113 10.047 1.955.819 4.057.768 5.875.024s3.352-2.182 4.172-4.137c4.03-9.617 15.134-14.165 24.753-10.132 3.91 1.637 8.407-.204 10.047-4.113 1.638-3.91-.203-8.407-4.113-10.046z" fill="#f1de96"/><path d="m252.491 256.263c4.553.933 7.824 4.941 7.824 9.589 0 17.68-17.444 32.217-39.779 33.928-22.335-1.711-39.779-16.247-39.779-33.928 0-4.648 3.271-8.655 7.824-9.589 10.332-2.118 21.017-3.229 31.955-3.229s21.623 1.111 31.955 3.229z" fill="#3f4a4a"/><path d="m260.315 265.852c0 13.572-10.278 25.29-25.157 30.778-14.879-5.488-25.158-17.206-25.158-30.778 0-4.648 3.271-8.655 7.824-9.589 5.677-1.164 11.46-2.023 17.334-2.561 5.873.538 11.657 1.397 17.334 2.561 4.552.934 7.823 4.941 7.823 9.589z" fill="#495959"/></g></svg>